<svg height="512pt" viewBox="0 0 511 512" width="512pt" xmlns="http://www.w3.org/2000/svg"><path d="m146.761719 411.546875c0 25.296875-20.511719 45.808594-45.808594 45.808594s-45.808594-20.511719-45.808594-45.808594 20.511719-45.808594 45.808594-45.808594 45.808594 20.511719 45.808594 45.808594zm0 0"/><path d="m497.730469 311.09375h-129.261719c-4.125 0-7.472656 3.34375-7.472656 7.472656 0 4.125 3.34375 7.472656 7.472656 7.472656h8.125v171.019532h-71.925781v-147.164063l91.222656-91.222656c.003906-.003906.003906-.003906.003906-.007813.003907 0 .003907 0 .007813-.003906l56.644531-56.644531c5.527344-5.53125 5.527344-14.527344 0-20.058594l-122.007813-122.003906c-5.527343-5.527344-14.523437-5.527344-20.054687 0l-80.367187 80.367187c-.003907.003907-.003907.003907-.003907.003907-.003906.003906-.003906.003906-.007812.007812l-28.699219 28.699219v-154.847656c0-7.820313-6.363281-14.183594-14.179688-14.183594h-172.546874c-7.820313 0-14.179688 6.363281-14.179688 14.183594v396.796875c0 54.386719 43.449219 98.816406 97.460938 100.402343.910156.394532 1.914062.617188 2.96875.617188h396.800781c7.820312 0 14.179687-6.363281 14.179687-14.179688v-172.542968c0-7.820313-6.359375-14.183594-14.179687-14.183594zm-177.21875-240.035156 120.929687 120.929687-50.828125 50.828125-120.929687-120.929687zm-61.394531 61.394531 120.929687 120.929687-13.15625 13.15625-120.929687-120.929687zm-57.710938 57.710937 33.988281-33.988281 120.929688 120.929688-50.859375 50.859375-71.585938-71.589844c-2.917968-2.917969-7.652344-2.917969-10.566406 0-2.917969 2.917969-2.917969 7.648438 0 10.566406l71.585938 71.589844-2.976563 2.976562c-.007813.007813-.011719.011719-.015625.015626l-10.164062 10.164062-80.335938-80.339844zm0 102.316407 69.769531 69.773437-12.757812 12.757813c-.035157.035156-.070313.066406-.105469.101562l-37.996094 37.996094-18.910156-18.910156zm-.097656 122.757812 8.441406 8.441407-11.234375 11.230468c1.558594-6.34375 2.511719-12.921875 2.792969-19.671875zm-185.867188-313.46875h24.9375c4.125 0 7.472656-3.34375 7.472656-7.472656 0-4.125-3.34375-7.472656-7.472656-7.472656h-24.9375v-71.882813h171.019532v71.886719h-111.386719c-4.125 0-7.472657 3.34375-7.472657 7.472656 0 4.125 3.34375 7.46875 7.472657 7.46875h111.386719v18.605469h-171.019532zm0 33.550781h171.019532v71.921876h-171.019532zm0 86.867188h171.019532v18.601562h-171.019532zm0 33.546875h171.019532v18.695313.027343 53.203125h-171.019532zm0 155.246094v-68.375h171.019532v68.375c0 47.148437-38.359376 85.507812-85.507813 85.507812-47.152344 0-85.511719-38.359375-85.511719-85.507812zm137.230469 86.078125c5.976563-3.609375 11.550781-7.816406 16.636719-12.546875v12.546875zm31.578125 0v-26.746094l71.925781-71.925781v98.671875zm86.867188 0v-113.617188l18.605468-18.601562v132.214844h-18.605468zm139.023437 0h-18.605469v-171.019532h18.605469zm86.828125 0h-71.886719v-171.019532h71.886719zm0 0"/><path d="m154.230469 411.546875c0-29.378906-23.902344-53.277344-53.277344-53.277344-29.378906 0-53.277344 23.902344-53.277344 53.277344 0 29.378906 23.898438 53.277344 53.277344 53.277344 29.375 0 53.277344-23.898438 53.277344-53.277344zm-91.613281 0c0-21.136719 17.199218-38.335937 38.335937-38.335937s38.335937 17.199218 38.335937 38.335937-17.199218 38.335937-38.335937 38.335937-38.335937-17.199218-38.335937-38.335937zm0 0"/></svg>