<svg xmlns="http://www.w3.org/2000/svg" xmlns:xlink="http://www.w3.org/1999/xlink" width="16" height="16" viewBox="0 0 16 16"><defs><path id="z3lsa" d="M802.038 3409.229c.307-.935 1.641-.935 1.947 0l1.21 3.688c.137.418.53.7.974.7h3.915c.992 0 1.404 1.258.602 1.836l-3.168 2.28a1.009 1.009 0 0 0-.371 1.133l1.21 3.689c.306.934-.774 1.71-1.576 1.133l-3.167-2.28a1.032 1.032 0 0 0-1.204 0l-3.167 2.28c-.803.578-1.882-.2-1.576-1.133l1.21-3.69a1.009 1.009 0 0 0-.372-1.133l-3.167-2.28c-.803-.577-.39-1.834.602-1.834h3.915c.443 0 .836-.283.973-.701z"/></defs><g><g transform="translate(-795 -3408)"><use xlink:href="#z3lsa"/></g></g></svg>